<?xml version="1.0" standalone="no"?>
<!DOCTYPE svg PUBLIC "-//W3C//DTD SVG 20010904//EN"
 "http://www.w3.org/TR/2001/REC-SVG-20010904/DTD/svg10.dtd">
<svg version="1.0" xmlns="http://www.w3.org/2000/svg"
 width="980.000000pt" height="772.000000pt" viewBox="0 0 980.000000 772.000000"
 preserveAspectRatio="xMidYMid meet">
<metadata>
Created by potrace 1.16, written by Peter Selinger 2001-2019
</metadata>
<g transform="translate(0.000000,772.000000) scale(0.100000,-0.100000)"
fill="whitesmoke" stroke="none">
<path d="M3740 7703 c-14 -3 -59 -20 -100 -40 -74 -35 -99 -59 -1812 -1771
-1409 -1407 -1743 -1747 -1767 -1792 -43 -81 -61 -153 -61 -245 0 -155 52
-280 153 -368 33 -29 812 -802 1731 -1718 1109 -1106 1687 -1676 1719 -1694
155 -89 354 -87 497 5 74 47 169 154 202 227 65 144 54 309 -30 448 -13 22
-601 617 -1305 1322 l-1282 1283 3862 0 c3761 0 3863 0 3922 19 201 63 332
249 330 471 -1 236 -138 418 -356 475 -50 13 -528 15 -3918 15 l-3860 0 1292
1293 c710 710 1302 1310 1315 1332 116 190 92 414 -61 577 -113 121 -218 169
-364 167 -45 -1 -93 -4 -107 -6z"/>
</g>
</svg>
