<?xml version="1.0" standalone="no"?>
<!DOCTYPE svg PUBLIC "-//W3C//DTD SVG 20010904//EN"
 "http://www.w3.org/TR/2001/REC-SVG-20010904/DTD/svg10.dtd">
<svg version="1.0" xmlns="http://www.w3.org/2000/svg"
 width="512.000000pt" height="512.000000pt" viewBox="0 0 512.000000 512.000000"
 preserveAspectRatio="xMidYMid meet">
<metadata>
Created by potrace 1.16, written by Peter Selinger 2001-2019
</metadata>
<g transform="translate(0.000000,512.000000) scale(0.100000,-0.100000)"
fill="#E5E5E5" stroke="none">
<path d="M960 3360 l0 -800 805 0 805 0 0 800 0 800 -805 0 -805 0 0 -800z
m1280 0 l0 -480 -475 0 -475 0 0 480 0 480 475 0 475 0 0 -480z"/>
<path d="M2880 3360 l0 -800 805 0 805 0 0 800 0 800 -805 0 -805 0 0 -800z"/>
<path d="M960 1440 l0 -800 805 0 805 0 0 800 0 800 -805 0 -805 0 0 -800z
m1280 0 l0 -480 -475 0 -475 0 0 480 0 480 475 0 475 0 0 -480z"/>
<path d="M2880 1440 l0 -800 805 0 805 0 0 800 0 800 -805 0 -805 0 0 -800z
m1280 0 l0 -480 -475 0 -475 0 0 480 0 480 475 0 475 0 0 -480z"/>
</g>
</svg>
