<?xml version="1.0" standalone="no"?>
<!DOCTYPE svg PUBLIC "-//W3C//DTD SVG 20010904//EN"
 "http://www.w3.org/TR/2001/REC-SVG-20010904/DTD/svg10.dtd">
<svg version="1.0" xmlns="http://www.w3.org/2000/svg"
 width="840.000000pt" height="796.000000pt" viewBox="0 0 840.000000 796.000000"
 preserveAspectRatio="xMidYMid meet">
<metadata>
Created by potrace 1.16, written by Peter Selinger 2001-2019
</metadata>
<g transform="translate(0.000000,796.000000) scale(0.100000,-0.100000)"
fill="#E5E5E5" stroke="none">
<path d="M2145 7548 c-82 -11 -172 -57 -229 -118 -80 -86 -116 -191 -116 -342
l0 -67 -247 -3 -248 -3 -68 -32 c-157 -75 -237 -218 -237 -430 l0 -61 -242 -4
c-225 -3 -247 -5 -301 -27 -81 -32 -168 -115 -209 -199 -31 -62 -33 -74 -38
-206 -9 -212 -4 -5356 5 -5391 17 -63 65 -142 117 -191 64 -61 112 -87 188
-103 42 -9 945 -11 3716 -9 l3660 3 76 37 c91 45 147 103 191 196 l32 67 0
2760 0 2760 -32 67 c-57 120 -157 201 -281 227 -29 6 -149 11 -266 11 l-214 0
-4 113 c-4 85 -10 126 -27 170 -32 81 -114 167 -199 209 l-66 33 -252 3 -252
3 -3 117 c-4 109 -6 122 -37 184 -51 104 -131 176 -238 213 -46 17 -179 18
-2084 19 -1119 1 -2062 -2 -2095 -6z m4110 -272 c56 -24 75 -66 75 -168 l0
-88 -2130 0 -2130 0 0 84 c0 96 20 138 80 168 33 17 152 18 2053 18 1733 0
2022 -2 2052 -14z m811 -540 c48 -29 58 -53 64 -154 l5 -92 -2932 0 -2933 0 0
75 c0 82 15 129 50 160 19 17 40 21 154 25 72 3 1353 5 2846 5 2622 0 2716 -1
2746 -19z m794 -531 c15 -8 38 -27 49 -41 l21 -27 0 -2715 0 -2714 -39 -39
-39 -39 -3643 0 c-3548 0 -3645 1 -3675 19 -17 10 -38 34 -47 54 -16 32 -17
233 -17 2722 0 2489 1 2690 17 2722 9 20 30 44 47 54 30 18 127 19 3664 19
3188 0 3636 -2 3662 -15z"/>
<path d="M835 5949 c-36 -11 -55 -26 -78 -59 -14 -21 -17 -51 -17 -199 0 -157
2 -177 20 -206 38 -61 125 -78 188 -37 45 29 52 60 54 239 2 196 -5 222 -75
254 -47 21 -50 21 -92 8z"/>
<path d="M1505 5953 c-39 -10 -74 -44 -90 -87 -14 -36 -16 -72 -13 -199 3
-175 11 -195 82 -231 49 -24 97 -15 144 29 l37 33 0 191 0 190 -29 30 c-25 26
-86 54 -106 50 -3 -1 -14 -4 -25 -6z"/>
<path d="M2166 5950 c-15 -5 -37 -17 -48 -27 -43 -38 -48 -64 -48 -236 0 -154
1 -166 23 -198 46 -69 131 -85 192 -37 47 37 55 73 55 240 0 126 -3 159 -18
187 -30 60 -95 89 -156 71z"/>
<path d="M2825 5945 c-22 -8 -41 -15 -42 -15 -1 0 -11 -15 -22 -34 -19 -30
-21 -49 -21 -205 0 -202 6 -222 76 -253 49 -21 89 -18 132 10 46 30 52 59 52
243 0 215 -9 236 -115 263 -11 3 -38 -1 -60 -9z"/>
<path d="M3496 5950 c-38 -12 -66 -38 -82 -77 -19 -45 -19 -321 0 -367 42
-100 171 -110 233 -17 22 32 23 44 23 200 0 147 -2 170 -20 198 -33 55 -95 80
-154 63z"/>
<path d="M4163 5949 c-34 -10 -80 -58 -89 -93 -3 -13 -4 -98 -2 -190 l3 -168
37 -33 c47 -44 95 -53 144 -29 74 37 79 53 79 252 0 155 -2 180 -18 204 -35
52 -95 74 -154 57z"/>
<path d="M4839 5950 c-91 -27 -99 -48 -99 -260 0 -183 6 -212 52 -242 63 -41
150 -24 188 37 18 29 20 49 20 208 l0 176 -31 35 c-38 44 -84 60 -130 46z"/>
<path d="M5496 5950 c-79 -24 -96 -69 -96 -262 0 -169 9 -202 63 -242 61 -45
152 -19 189 55 15 28 18 61 18 189 0 128 -3 161 -18 189 -30 60 -95 89 -156
71z"/>
<path d="M6165 5949 c-17 -4 -44 -22 -60 -39 l-30 -31 -3 -180 c-3 -168 -2
-182 18 -214 14 -22 36 -39 65 -51 47 -18 80 -14 122 13 46 30 52 58 54 239 3
198 -5 223 -74 255 -47 21 -49 21 -92 8z"/>
<path d="M6815 5941 c-70 -31 -79 -56 -83 -215 -2 -76 -1 -158 3 -182 17 -118
148 -160 231 -73 l29 30 0 189 0 189 -29 30 c-17 17 -46 36 -65 41 -45 12 -39
13 -86 -9z"/>
<path d="M7496 5950 c-15 -5 -37 -17 -48 -27 -43 -38 -48 -64 -48 -236 0 -154
1 -166 23 -198 47 -72 134 -86 197 -33 44 38 52 80 48 255 -2 127 -6 160 -21
182 -33 50 -95 74 -151 57z"/>
<path d="M3306 4905 c-57 -20 -108 -66 -138 -125 l-28 -52 0 -1302 0 -1302 26
-52 c29 -59 69 -96 133 -125 58 -26 158 -21 219 11 118 61 2092 1249 2120
1276 99 92 108 254 21 359 -23 28 -292 194 -1076 663 -574 344 -1063 634
-1086 645 -50 22 -135 24 -191 4z m999 -793 c473 -283 924 -553 1003 -600 78
-47 139 -89 135 -93 -11 -9 -2033 -1219 -2039 -1219 -2 0 -4 551 -4 1225 l0
1226 23 -12 c12 -7 409 -244 882 -527z"/>
<path d="M835 1419 c-37 -10 -73 -42 -86 -76 -5 -13 -9 -99 -9 -190 0 -190 6
-210 78 -244 53 -26 98 -20 140 20 46 42 54 90 46 259 -8 170 -16 195 -77 223
-47 21 -49 21 -92 8z"/>
<path d="M1503 1423 c-35 -7 -80 -55 -92 -99 -12 -42 -15 -271 -5 -324 9 -44
63 -96 109 -104 51 -10 118 23 140 70 14 29 16 63 13 209 -3 169 -4 174 -28
201 -26 27 -79 55 -102 53 -7 -1 -23 -4 -35 -6z"/>
<path d="M2166 1420 c-15 -5 -37 -17 -48 -27 -43 -38 -48 -64 -48 -236 0 -154
1 -166 23 -198 46 -69 131 -85 192 -37 47 37 55 73 55 240 0 126 -3 159 -18
187 -30 60 -95 89 -156 71z"/>
<path d="M2825 1415 c-22 -8 -41 -15 -42 -15 -1 0 -11 -15 -22 -34 -19 -30
-21 -49 -21 -205 0 -188 6 -213 57 -246 37 -25 109 -25 146 0 51 33 57 58 57
246 0 215 -9 236 -115 263 -11 3 -38 -1 -60 -9z"/>
<path d="M3496 1420 c-41 -13 -74 -48 -86 -89 -15 -56 -13 -315 4 -355 42
-100 171 -110 233 -17 22 32 23 44 23 200 0 147 -2 170 -20 198 -33 55 -95 80
-154 63z"/>
<path d="M4165 1419 c-17 -4 -44 -22 -60 -39 l-30 -31 0 -189 0 -189 29 -30
c76 -79 197 -53 226 50 17 58 12 302 -6 349 -26 66 -93 99 -159 79z"/>
<path d="M4839 1420 c-91 -27 -99 -48 -99 -262 0 -195 7 -220 73 -251 43 -21
56 -21 107 -1 72 29 80 55 80 257 l0 176 -31 35 c-38 44 -84 60 -130 46z"/>
<path d="M5496 1420 c-79 -24 -96 -69 -96 -262 0 -126 3 -159 18 -187 52 -103
182 -103 234 0 15 28 18 61 18 189 0 128 -3 161 -18 189 -30 60 -95 89 -156
71z"/>
<path d="M6164 1419 c-18 -5 -46 -25 -63 -44 l-31 -36 0 -176 c0 -159 2 -179
20 -208 38 -61 125 -78 188 -37 51 33 57 63 54 245 -3 195 -10 218 -75 248
-47 21 -49 21 -93 8z"/>
<path d="M6813 1411 c-65 -30 -77 -62 -81 -219 -5 -175 1 -213 41 -256 44 -47
92 -55 151 -27 71 35 78 59 74 266 l-3 174 -29 30 c-17 17 -46 36 -65 41 -45
12 -38 13 -88 -9z"/>
<path d="M7496 1420 c-15 -5 -37 -17 -48 -27 -43 -38 -48 -64 -48 -236 0 -154
1 -166 23 -198 46 -69 131 -85 192 -37 47 37 55 73 55 240 0 126 -3 159 -18
187 -30 60 -95 89 -156 71z"/>
</g>
</svg>
