<?xml version="1.0" standalone="no"?>
<!DOCTYPE svg PUBLIC "-//W3C//DTD SVG 20010904//EN"
 "http://www.w3.org/TR/2001/REC-SVG-20010904/DTD/svg10.dtd">
<svg version="1.0" xmlns="http://www.w3.org/2000/svg"
 width="360.000000pt" height="360.000000pt" viewBox="0 0 360.000000 360.000000"
 preserveAspectRatio="xMidYMid meet">
<metadata>
Created by potrace 1.16, written by Peter Selinger 2001-2019
</metadata>
<g transform="translate(0.000000,360.000000) scale(0.100000,-0.100000)"
fill="gray" stroke="none">
<path d="M1634 3130 c-181 -33 -345 -121 -484 -260 -111 -112 -175 -213 -219
-346 -67 -199 -67 -358 0 -556 57 -173 259 -509 471 -785 262 -341 392 -503
402 -500 11 4 193 233 395 497 292 383 455 675 506 904 23 103 16 288 -14 394
-86 296 -328 538 -626 628 -76 22 -113 27 -235 30 -80 1 -168 -1 -196 -6z
m313 -670 c198 -97 231 -364 65 -511 -97 -85 -236 -102 -356 -43 -183 89 -228
342 -88 487 106 110 243 133 379 67z"/>
<path d="M1410 954 c-118 -35 -203 -79 -249 -129 -52 -57 -60 -99 -31 -161 39
-79 156 -143 345 -187 126 -29 505 -32 635 -4 177 38 308 103 357 176 44 66
23 148 -53 206 -80 61 -308 139 -329 112 -166 -215 -251 -320 -262 -324 -33
-13 -66 18 -185 171 -68 88 -128 161 -133 162 -6 2 -48 -8 -95 -22z"/>
</g>
</svg>
