<?xml version="1.0" standalone="no"?>
<!DOCTYPE svg PUBLIC "-//W3C//DTD SVG 20010904//EN"
 "http://www.w3.org/TR/2001/REC-SVG-20010904/DTD/svg10.dtd">
<svg version="1.0" xmlns="http://www.w3.org/2000/svg"
 width="512.000000pt" height="512.000000pt" viewBox="0 0 512.000000 512.000000"
 preserveAspectRatio="xMidYMid meet">
<metadata>
Created by potrace 1.16, written by Peter Selinger 2001-2019
</metadata>
<g transform="translate(0.000000,512.000000) scale(0.100000,-0.100000)"
fill="#E5E5E5" stroke="none">
<path d="M420 3625 l0 -215 1285 0 1285 0 0 215 0 215 -1285 0 -1285 0 0 -215z"/>
<path d="M420 2775 l0 -215 1285 0 1285 0 0 215 0 215 -1285 0 -1285 0 0 -215z"/>
<path d="M3410 2565 l0 -425 -425 0 -425 0 0 -220 0 -220 425 0 425 0 0 -425
0 -425 215 0 215 0 0 425 0 425 430 0 430 0 0 220 0 220 -430 0 -430 0 0 425
0 425 -215 0 -215 0 0 -425z"/>
<path d="M420 1920 l0 -220 860 0 860 0 0 220 0 220 -860 0 -860 0 0 -220z"/>
</g>
</svg>
