<?xml version="1.0" standalone="no"?>
<!DOCTYPE svg PUBLIC "-//W3C//DTD SVG 20010904//EN"
 "http://www.w3.org/TR/2001/REC-SVG-20010904/DTD/svg10.dtd">
<svg version="1.0" xmlns="http://www.w3.org/2000/svg"
 width="512.000000pt" height="512.000000pt" viewBox="0 0 512.000000 512.000000"
 preserveAspectRatio="xMidYMid meet">
<metadata>
Created by potrace 1.16, written by Peter Selinger 2001-2019
</metadata>
<g transform="translate(0.000000,512.000000) scale(0.100000,-0.100000)"
fill="white" stroke="none">
<path d="M1161 2863 c-66 -23 -153 -113 -180 -186 -46 -126 -18 -253 78 -348
69 -68 124 -89 231 -89 66 0 86 4 138 30 69 35 125 92 155 159 33 72 30 198
-6 273 -32 66 -89 121 -161 154 -41 19 -67 24 -131 23 -45 0 -99 -7 -124 -16z"/>
<path d="M2454 2870 c-86 -27 -181 -126 -205 -213 -17 -64 -7 -194 20 -245 28
-54 88 -115 143 -144 37 -20 58 -23 148 -23 120 0 160 15 230 85 70 70 85 110
85 230 0 120 -15 160 -85 230 -64 64 -111 83 -215 87 -49 1 -104 -2 -121 -7z"/>
<path d="M3734 2870 c-86 -27 -181 -126 -205 -213 -17 -64 -7 -194 20 -245 28
-54 88 -115 143 -144 37 -20 58 -23 148 -23 120 0 160 15 230 85 70 70 85 110
85 230 0 120 -15 160 -85 230 -64 64 -111 83 -215 87 -49 1 -104 -2 -121 -7z"/>
</g>
</svg>
