<?xml version="1.0" standalone="no"?>
<!DOCTYPE svg PUBLIC "-//W3C//DTD SVG 20010904//EN"
 "http://www.w3.org/TR/2001/REC-SVG-20010904/DTD/svg10.dtd">
<svg version="1.0" xmlns="http://www.w3.org/2000/svg"
 width="512.000000pt" height="512.000000pt" viewBox="0 0 512.000000 512.000000"
 preserveAspectRatio="xMidYMid meet">
<metadata>
Created by potrace 1.16, written by Peter Selinger 2001-2019
</metadata>
<g transform="translate(0.000000,512.000000) scale(0.100000,-0.100000)"
fill="#E5E5E5" stroke="none">
<path d="M2345 4689 c-38 -5 -92 -7 -120 -5 -35 4 -41 3 -20 -3 28 -7 26 -8
-25 -15 -145 -22 -402 -107 -563 -188 -43 -21 -83 -36 -89 -32 -6 4 -8 3 -5
-4 4 -6 -18 -25 -50 -44 -73 -42 -78 -44 -68 -27 5 8 4 11 -1 6 -5 -5 -9 -14
-9 -19 0 -6 -6 -13 -14 -16 -9 -3 -11 0 -6 9 5 8 4 11 -1 6 -5 -5 -9 -12 -9
-17 0 -4 -36 -34 -80 -67 -44 -33 -107 -84 -140 -113 -33 -30 -76 -68 -95 -84
-34 -30 -34 -30 -10 -3 14 16 63 61 109 100 127 108 143 124 71 70 -83 -62
-281 -260 -343 -343 -54 -72 -37 -54 67 68 38 45 71 80 74 77 3 -2 -21 -33
-53 -67 -32 -35 -85 -99 -118 -143 -33 -44 -63 -80 -67 -80 -5 0 -12 -4 -17
-9 -5 -5 -2 -6 6 -1 9 5 12 3 9 -6 -3 -8 -10 -14 -15 -14 -6 0 -15 -4 -20 -9
-5 -5 -3 -6 5 -2 18 11 15 4 -30 -70 -186 -306 -298 -713 -298 -1082 0 -380
109 -773 301 -1090 42 -70 45 -77 27 -66 -8 4 -10 3 -5 -2 5 -5 14 -9 19 -9 6
0 13 -6 16 -14 3 -9 0 -11 -9 -6 -8 5 -11 4 -6 -1 5 -5 12 -9 17 -9 4 0 34
-36 67 -80 33 -44 86 -108 118 -143 32 -34 56 -65 53 -67 -3 -3 -36 32 -74 77
-104 122 -121 140 -67 68 62 -83 260 -281 343 -343 72 -54 54 -37 -68 67 -45
38 -80 71 -77 74 2 3 33 -21 67 -53 35 -32 99 -85 143 -118 44 -33 80 -63 80
-67 0 -5 4 -12 9 -17 5 -5 6 -2 1 6 -5 9 -3 12 6 9 8 -3 14 -10 14 -15 0 -6 4
-15 9 -20 5 -5 6 -2 1 6 -10 17 -5 15 68 -27 32 -19 54 -38 50 -44 -3 -6 -1
-8 4 -5 6 4 62 -18 124 -47 641 -304 1401 -267 1997 95 70 42 77 45 66 27 -4
-8 -3 -10 2 -5 5 5 9 14 9 20 0 5 6 12 14 15 9 3 11 0 6 -9 -5 -8 -4 -11 1 -6
5 5 9 12 9 17 0 4 36 34 80 67 44 33 108 86 143 118 34 32 65 56 67 53 3 -3
-32 -36 -77 -74 -122 -104 -140 -121 -68 -67 83 62 281 260 343 343 54 72 37
54 -67 -68 -38 -45 -71 -80 -74 -77 -3 2 21 33 53 67 32 35 85 99 118 143 33
44 63 80 67 80 5 0 12 4 17 9 5 5 2 6 -6 1 -9 -5 -12 -3 -9 6 3 8 10 14 16 14
5 0 14 4 19 9 5 5 2 6 -6 1 -17 -10 -15 -5 27 68 19 32 38 54 44 50 7 -3 8 -1
4 5 -4 6 11 46 32 89 320 640 289 1424 -79 2031 -42 70 -45 77 -26 66 7 -4 9
-3 4 2 -5 5 -14 9 -20 9 -5 0 -12 6 -15 14 -3 9 0 11 9 6 8 -5 11 -4 6 1 -5 5
-12 9 -17 9 -4 0 -34 36 -67 80 -33 44 -84 107 -113 140 -30 33 -68 76 -84 95
-30 34 -30 34 -3 10 16 -14 61 -63 100 -109 108 -127 124 -143 70 -71 -62 83
-260 281 -343 343 -72 54 -54 37 68 -67 45 -38 80 -71 77 -74 -2 -3 -33 21
-67 53 -35 32 -99 85 -143 118 -44 33 -80 63 -80 67 0 5 -4 12 -9 17 -5 5 -6
2 -1 -6 5 -9 3 -12 -6 -9 -8 3 -14 10 -14 15 0 6 -4 15 -9 20 -5 5 -6 3 -2 -4
11 -19 4 -16 -70 29 -238 145 -548 249 -839 283 -139 16 -346 18 -460 4z m551
-463 c234 -49 460 -147 654 -284 121 -85 306 -270 392 -392 371 -524 420
-1202 127 -1770 -84 -161 -175 -286 -309 -420 -134 -134 -259 -225 -420 -309
-568 -293 -1245 -244 -1770 127 -121 86 -306 271 -392 392 -137 194 -234 418
-285 659 -24 113 -27 147 -27 331 0 184 3 218 27 331 51 241 148 465 285 659
86 121 271 306 392 392 231 164 511 272 796 308 126 16 395 4 530 -24z"/>
<path d="M2322 2989 c-2 -597 -1 -648 15 -660 11 -10 14 -10 9 -1 -4 6 -5 12
-3 12 2 0 253 -153 557 -340 467 -288 555 -338 568 -328 8 7 17 11 19 8 2 -3
15 14 29 38 33 55 23 55 -11 0 -15 -24 -25 -36 -22 -28 6 20 157 266 157 256
0 -4 -5 -17 -11 -29 -10 -21 -10 -21 5 -3 20 25 20 30 -1 47 -11 10 -14 10 -9
2 4 -7 5 -13 2 -13 -2 0 -219 128 -480 286 l-476 285 0 555 0 554 -165 0 -165
0 -2 -647 -3 -648 -5 650 -5 650 -3 -646z"/>
</g>
</svg>
