<?xml version="1.0" standalone="no"?>
<!DOCTYPE svg PUBLIC "-//W3C//DTD SVG 20010904//EN"
 "http://www.w3.org/TR/2001/REC-SVG-20010904/DTD/svg10.dtd">
<svg version="1.0" xmlns="http://www.w3.org/2000/svg"
 width="1600.000000pt" height="1600.000000pt" viewBox="0 0 1600.000000 1600.000000"
 preserveAspectRatio="xMidYMid meet">
<metadata>
Created by potrace 1.16, written by Peter Selinger 2001-2019
</metadata>
<g transform="translate(0.000000,1600.000000) scale(0.100000,-0.100000)"
fill="#EF4444" stroke="none">
<path d="M4730 13639 c-379 -15 -751 -80 -1103 -195 -1305 -426 -2184 -1502
-2376 -2909 -128 -941 44 -1872 505 -2728 423 -785 1057 -1517 2109 -2437 222
-195 655 -556 1333 -1113 1073 -883 1686 -1452 2155 -2004 91 -106 156 -160
248 -203 219 -102 508 -68 682 81 26 23 109 111 184 196 345 392 809 843 1338
1299 221 190 559 472 1025 854 976 800 1400 1172 1853 1624 958 959 1505 1838
1742 2798 84 341 118 641 119 1033 0 502 -58 878 -204 1316 -408 1229 -1409
2083 -2720 2323 -297 54 -641 78 -930 65 -873 -41 -1792 -516 -2680 -1386
l-136 -132 -109 110 c-450 453 -960 829 -1450 1069 -404 197 -835 318 -1193
335 -59 3 -132 7 -162 8 -30 2 -134 0 -230 -4z"/>
</g>
</svg>
